<svg width="20" height="51" viewBox="0 0 20 51" fill="none" xmlns="http://www.w3.org/2000/svg">
<path d="M5.46395 2.0124C4.75395 0.828226 3.21842 0.44384 2.03425 1.15384C0.850076 1.86385 0.46569 3.39938 1.1757 4.58355L5.46395 2.0124ZM16.6902 25.5976L18.8403 26.8732L19.6011 25.5908L18.8344 24.312L16.6902 25.5976ZM1.16977 46.8575C0.465251 48.0449 0.856743 49.5787 2.04419 50.2832C3.23163 50.9877 4.76537 50.5962 5.46988 49.4088L1.16977 46.8575ZM1.1757 4.58355L14.5461 26.8832L18.8344 24.312L5.46395 2.0124L1.1757 4.58355ZM14.5402 24.3219L1.16977 46.8575L5.46988 49.4088L18.8403 26.8732L14.5402 24.3219Z" fill="white" fill-opacity="0.81"/>
</svg>
